<svg width="1006" height="406" viewBox="0 0 1006 406" fill="none" xmlns="http://www.w3.org/2000/svg">
<path d="M989.306 405.227C990.087 406.008 991.353 406.008 992.134 405.227L1004.86 392.499C1005.64 391.718 1005.64 390.451 1004.86 389.67C1004.08 388.889 1002.81 388.889 1002.03 389.67L990.72 400.984L979.406 389.67C978.625 388.889 977.359 388.889 976.578 389.67C975.797 390.451 975.797 391.718 976.578 392.499L989.306 405.227ZM0.585938 2C0.57067 3.99994 0.570675 3.99994 0.570684 3.99994C0.570694 3.99994 0.570708 3.99994 0.570727 3.99994C0.570764 3.99994 0.570821 3.99994 0.570896 3.99994C0.571047 3.99994 0.571273 3.99995 0.571573 3.99995C0.572175 3.99995 0.573076 3.99996 0.574278 3.99997C0.576681 3.99999 0.580284 4.00002 0.585083 4.00005C0.594682 4.00012 0.609068 4.00023 0.628219 4.00038C0.666521 4.00067 0.723882 4.00111 0.800126 4.00169C0.952614 4.00285 1.18063 4.00459 1.48277 4.00689C2.08703 4.01148 2.98775 4.01832 4.17359 4.02729L4.20386 0.0274059C3.01807 0.0184311 2.11739 0.0115941 1.51317 0.00700082C1.21106 0.00470415 0.983065 0.00296852 0.830598 0.00180699C0.754364 0.00122628 0.697014 0.000789063 0.658723 0.000497C0.639577 0.000351028 0.625196 0.000241344 0.615603 0.000168156C0.610806 0.000131502 0.607206 0.000104032 0.604805 8.57564e-05C0.603605 7.65589e-05 0.602705 6.96303e-05 0.602105 6.50911e-05C0.601804 6.28215e-05 0.601579 6.10897e-05 0.60143 5.98957e-05C0.601355 5.93584e-05 0.601298 5.88959e-05 0.601261 5.86275e-05C0.601242 5.8553e-05 0.601228 5.83781e-05 0.601219 5.83408e-05C0.60121 5.83038e-05 0.601205 5.82856e-05 0.585938 2ZM12.2104 4.08787C14.6266 4.10602 17.4004 4.1268 20.5141 4.15006L20.544 0.150171C17.4303 0.126916 14.6566 0.106132 12.2404 0.0879832L12.2104 4.08787ZM28.3769 4.20864C30.9268 4.2276 33.6376 4.24771 36.5032 4.26892L36.5328 0.26903C33.6673 0.24782 30.9565 0.22771 28.4066 0.208754L28.3769 4.20864ZM44.5002 4.32799C47.1314 4.34738 49.8677 4.36752 52.7056 4.38836L52.735 0.388463C49.8971 0.367626 47.1608 0.347492 44.5297 0.328097L44.5002 4.32799ZM60.5665 4.44597C63.2664 4.46572 66.0451 4.48601 68.9 4.50682L68.9292 0.506926C66.0743 0.486119 63.2956 0.465827 60.5958 0.446075L60.5665 4.44597ZM76.7512 4.56394C79.3682 4.58295 82.0419 4.60234 84.7704 4.62209L84.7993 0.622193C82.0708 0.602444 79.3972 0.583057 76.7803 0.56405L76.7512 4.56394ZM93.1189 4.68241C95.6765 4.70085 98.2772 4.71958 100.92 4.73858L100.949 0.738679C98.306 0.719682 95.7053 0.700956 93.1478 0.68251L93.1189 4.68241ZM108.938 4.79611C111.651 4.81555 114.405 4.83525 117.198 4.85518L117.226 0.855286C114.433 0.835348 111.68 0.815654 108.966 0.796215L108.938 4.79611ZM125.139 4.91178C127.761 4.93044 130.415 4.94929 133.099 4.96833L133.128 0.968431C130.443 0.949393 127.789 0.930542 125.168 0.911886L125.139 4.91178ZM141.244 5.02599C143.94 5.04504 146.664 5.06426 149.415 5.08364L149.444 1.08374C146.692 1.06436 143.968 1.04514 141.273 1.02609L141.244 5.02599ZM157.304 5.13911C159.958 5.15774 162.636 5.17651 165.338 5.19541L165.366 1.19551C162.664 1.17661 159.986 1.15784 157.332 1.13921L157.304 5.13911ZM173.512 5.25249C176.181 5.27109 178.87 5.28981 181.581 5.30864L181.609 1.30874C178.898 1.28991 176.208 1.27119 173.54 1.25259L173.512 5.25249ZM189.519 5.36369C192.184 5.38214 194.867 5.40068 197.569 5.41932L197.597 1.41942C194.895 1.40078 192.211 1.38223 189.546 1.36378L189.519 5.36369ZM205.728 5.4755C208.401 5.49387 211.09 5.51232 213.795 5.53084L213.822 1.53094C211.117 1.51241 208.428 1.49396 205.756 1.4756L205.728 5.4755ZM221.748 5.58521C224.414 5.60341 227.095 5.62167 229.79 5.63999L229.817 1.64008C227.122 1.62176 224.441 1.6035 221.775 1.58531L221.748 5.58521ZM237.916 5.69513C240.608 5.71336 243.314 5.73165 246.032 5.74999L246.059 1.75008C243.341 1.73174 240.635 1.71345 237.943 1.69522L237.916 5.69513ZM253.987 5.80355C256.65 5.82145 259.325 5.83939 262.011 5.85737L262.037 1.85746C259.352 1.83948 256.677 1.82154 254.014 1.80364L253.987 5.80355ZM270.101 5.91143C272.808 5.92948 275.526 5.94756 278.254 5.96568L278.281 1.96577C275.553 1.94765 272.835 1.92957 270.128 1.91151L270.101 5.91143ZM286.233 6.01856C288.894 6.03615 291.563 6.05376 294.241 6.0714L294.267 2.07148C291.589 2.05385 288.92 2.03623 286.26 2.01864L286.233 6.01856ZM302.299 6.12435C304.993 6.14202 307.696 6.15971 310.406 6.1774L310.432 2.17748C307.722 2.15979 305.019 2.14211 302.325 2.12444L302.299 6.12435ZM318.484 6.23002C321.143 6.2473 323.808 6.26459 326.48 6.28188L326.506 2.28197C323.834 2.26468 321.169 2.24739 318.51 2.23011L318.484 6.23002ZM334.515 6.33375C337.2 6.35104 339.89 6.36833 342.587 6.38562L342.612 2.3857C339.916 2.36842 337.226 2.35113 334.541 2.33384L334.515 6.33375ZM350.692 6.43745C353.364 6.4545 356.041 6.47153 358.723 6.48856L358.749 2.48864C356.067 2.47161 353.389 2.45458 350.717 2.43753L350.692 6.43745ZM366.746 6.53936C369.425 6.55628 372.108 6.57318 374.795 6.59007L374.82 2.59015C372.133 2.57326 369.45 2.55636 366.772 2.53944L366.746 6.53936ZM382.866 6.64065C385.56 6.65749 388.257 6.6743 390.957 6.69108L390.982 2.69116C388.282 2.67438 385.585 2.65757 382.891 2.64073L382.866 6.64065ZM398.981 6.74083C401.658 6.75738 404.338 6.7739 407.02 6.79039L407.045 2.79046C404.363 2.77398 401.683 2.75745 399.005 2.7409L398.981 6.74083ZM415.073 6.83975C417.76 6.85616 420.448 6.87254 423.137 6.88888L423.162 2.88895C420.472 2.87262 417.784 2.85624 415.098 2.83982L415.073 6.83975ZM431.202 6.93772C433.883 6.9539 436.565 6.97004 439.247 6.98613L439.271 2.9862C436.589 2.97011 433.907 2.95397 431.226 2.93779L431.202 6.93772ZM447.297 7.03426C449.981 7.05026 452.665 7.0662 455.349 7.08209L455.373 3.08216C452.689 3.06627 450.005 3.05033 447.321 3.03433L447.297 7.03426ZM463.401 7.12958C466.087 7.14538 468.773 7.16111 471.458 7.17678L471.481 3.17685C468.796 3.16118 466.11 3.14544 463.424 3.12965L463.401 7.12958ZM479.52 7.22366C482.206 7.23922 484.891 7.25472 487.575 7.27015L487.598 3.27021C484.914 3.25479 482.229 3.23929 479.543 3.22373L479.52 7.22366ZM495.621 7.31622C498.301 7.33151 500.979 7.34672 503.655 7.36186L503.678 3.36192C501.002 3.34678 498.324 3.33157 495.644 3.31628L495.621 7.31622ZM511.723 7.40731C514.417 7.42242 517.109 7.43745 519.797 7.4524L519.819 3.45246C517.131 3.43751 514.44 3.42248 511.746 3.40737L511.723 7.40731ZM527.852 7.49698C530.534 7.51175 533.212 7.52643 535.886 7.54103L535.908 3.54109C533.234 3.52649 530.556 3.51181 527.874 3.49704L527.852 7.49698ZM543.897 7.58453C546.602 7.59914 549.302 7.61366 551.998 7.62808L552.02 3.62813C549.324 3.61372 546.623 3.5992 543.918 3.58458L543.897 7.58453ZM560.077 7.67105C562.765 7.68527 565.448 7.69938 568.125 7.71338L568.146 3.71344C565.469 3.69944 562.786 3.68532 560.098 3.6711L560.077 7.67105ZM576.139 7.75506C578.821 7.76893 581.497 7.78268 584.167 7.79631L584.187 3.79636C581.518 3.78273 578.842 3.76898 576.159 3.75511L576.139 7.75506ZM592.284 7.8375C594.983 7.8511 597.674 7.86457 600.358 7.87792L600.378 3.87797C597.694 3.86462 595.003 3.85115 592.304 3.83755L592.284 7.8375ZM608.386 7.91756C611.055 7.93064 613.715 7.94358 616.366 7.95639L616.386 3.95643C613.734 3.94363 611.074 3.93068 608.406 3.91761L608.386 7.91756ZM624.467 7.99519C627.18 8.00809 629.884 8.02083 632.578 8.03341L632.597 4.03346C629.903 4.02087 627.199 4.00813 624.486 3.99524L624.467 7.99519ZM640.629 8.0707C643.303 8.08297 645.966 8.09507 648.618 8.10702L648.636 4.10706C645.984 4.09511 643.321 4.08301 640.648 4.07074L640.629 8.0707ZM656.63 8.14273C659.361 8.15478 662.079 8.16665 664.785 8.17833L664.802 4.17837C662.097 4.16669 659.378 4.15482 656.647 4.14277L656.63 8.14273ZM672.864 8.2128C675.544 8.2241 678.21 8.2352 680.863 8.24611L680.879 4.24614C678.227 4.23524 675.56 4.22413 672.881 4.21283L672.864 8.2128ZM688.788 8.27827C691.538 8.28928 694.272 8.30007 696.99 8.31063L697.005 4.31066C694.288 4.3001 691.554 4.28931 688.804 4.27831L688.788 8.27827ZM705.093 8.34161C707.778 8.35171 710.445 8.36157 713.095 8.37119L713.109 4.37122C710.46 4.3616 707.792 4.35174 705.108 4.34164L705.093 8.34161ZM720.99 8.39933C723.751 8.40898 726.491 8.41835 729.209 8.42745L729.223 4.42747C726.504 4.41838 723.764 4.409 721.004 4.39936L720.99 8.39933ZM737.322 8.45394C740.005 8.46249 742.666 8.47075 745.304 8.47871L745.316 4.47873C742.678 4.47076 740.018 4.46251 737.335 4.45396L737.322 8.45394ZM753.211 8.50187C755.988 8.50975 758.738 8.51729 761.461 8.52447L761.471 4.52449C758.749 4.51731 755.999 4.50977 753.222 4.50189L753.211 8.50187ZM769.544 8.54494C772.211 8.5514 774.848 8.5575 777.457 8.56323L777.465 4.56324C774.857 4.55751 772.22 4.55142 769.554 4.54495L769.544 8.54494ZM785.538 8.57996C788.305 8.58533 791.036 8.59024 793.73 8.5947L793.737 4.59471C791.043 4.59025 788.313 4.58533 785.546 4.57996L785.538 8.57996ZM801.7 8.60668C804.38 8.61029 807.02 8.6134 809.618 8.61601L809.622 4.61601C807.024 4.61341 804.384 4.61029 801.705 4.60668L801.7 8.60668ZM817.901 8.62269C820.613 8.62431 823.275 8.62533 825.885 8.62573L825.886 4.62573C823.276 4.62533 820.615 4.62431 817.904 4.62269L817.901 8.62269ZM833.797 8.62498C836.631 8.62397 839.397 8.62214 842.094 8.61948L842.09 4.61948C839.394 4.62214 836.629 4.62397 833.795 4.62498L833.797 8.62498ZM849.97 8.60897C852.782 8.60418 855.506 8.59835 858.14 8.59146L858.129 4.59147C855.497 4.59836 852.774 4.60419 849.963 4.60898L849.97 8.60897ZM866.211 8.56588C868.996 8.55539 871.658 8.54346 874.194 8.53006L874.172 4.53012C871.639 4.54351 868.979 4.55542 866.196 4.56591L866.211 8.56588ZM882.328 8.47869C883.601 8.46915 884.83 8.45913 886.017 8.4486L885.981 4.44876C884.797 4.45927 883.569 4.46928 882.299 4.4788L882.328 8.47869ZM886.017 8.4486C887.403 8.43631 888.771 8.42426 890.123 8.41284L890.089 4.41298C888.737 4.42441 887.368 4.43647 885.981 4.44876L886.017 8.4486ZM898.027 8.35489C900.795 8.33895 903.485 8.32948 906.099 8.33029L906.101 4.33029C903.476 4.32948 900.778 4.33898 898.004 4.35495L898.027 8.35489ZM914.067 8.37105C916.791 8.40045 919.422 8.44736 921.965 8.51693L922.075 4.51842C919.506 4.44815 916.852 4.40087 914.11 4.37128L914.067 8.37105ZM929.892 8.82768C932.653 8.97356 935.295 9.15805 937.822 9.38919L938.187 5.40582C935.6 5.16929 932.907 4.98138 930.103 4.83325L929.892 8.82768ZM945.651 10.3165C948.362 10.7221 950.915 11.2048 953.318 11.777L954.245 7.88569C951.714 7.28336 949.049 6.78028 946.243 6.36054L945.651 10.3165ZM960.693 13.9954C963.198 14.9341 965.499 16.0193 967.617 17.2712L969.652 13.8279C967.313 12.4447 964.797 11.2616 962.097 10.2498L960.693 13.9954ZM973.672 21.7624C975.485 23.4386 977.137 25.3278 978.642 27.4611L981.911 25.1554C980.25 22.8015 978.414 20.6989 976.387 18.8252L973.672 21.7624ZM982.467 34.0679C983.507 36.2563 984.454 38.6392 985.313 41.2355L989.11 39.9791C988.205 37.2445 987.199 34.7058 986.08 32.3511L982.467 34.0679ZM987.419 48.7623C987.993 51.196 988.512 53.7784 988.98 56.519L992.923 55.8466C992.443 53.0335 991.908 50.3684 991.313 47.8442L987.419 48.7623ZM990.118 64.3C990.428 66.7899 990.706 69.3902 990.953 72.1062L994.937 71.7433C994.686 68.988 994.404 66.3434 994.087 63.8053L990.118 64.3ZM991.571 80.0504C991.74 82.6285 991.888 85.2984 992.015 88.0633L996.011 87.8795C995.882 85.0911 995.734 82.3951 995.563 79.7886L991.571 80.0504ZM992.315 95.9068C992.397 98.5302 992.464 101.231 992.517 104.012L996.516 103.936C996.463 101.14 996.395 98.4231 996.313 95.7822L992.315 95.9068ZM992.629 111.847C992.656 114.479 992.672 117.178 992.678 119.944L996.678 119.935C996.671 117.159 996.655 114.451 996.629 111.807L992.629 111.847ZM992.673 127.8C992.664 130.458 992.648 133.174 992.625 135.95L996.625 135.983C996.648 133.202 996.664 130.479 996.673 127.814L992.673 127.8ZM992.546 143.763C992.514 146.418 992.477 149.124 992.436 151.883L996.436 151.943C996.477 149.18 996.514 146.47 996.545 143.81L992.546 143.763ZM992.309 159.764C992.264 162.383 992.216 165.048 992.165 167.758L996.164 167.834C996.215 165.122 996.264 162.455 996.309 159.832L992.309 159.764ZM992.005 175.852C991.953 178.428 991.899 181.043 991.842 183.698L995.841 183.783C995.898 181.127 995.952 178.511 996.005 175.933L992.005 175.852ZM991.668 191.783C991.611 194.408 991.552 197.071 991.492 199.771L995.491 199.86C995.551 197.159 995.61 194.496 995.667 191.87L991.668 191.783ZM991.316 207.667C991.256 210.334 991.196 213.036 991.135 215.773L995.134 215.863C995.195 213.125 995.255 210.423 995.315 207.756L991.316 207.667ZM990.958 223.748C990.901 226.348 990.843 228.978 990.785 231.64L994.785 231.727C994.842 229.065 994.9 226.435 994.957 223.836L990.958 223.748ZM990.612 239.72C990.556 242.376 990.5 245.062 990.444 247.778L994.443 247.86C994.499 245.145 994.555 242.46 994.611 239.805L990.612 239.72ZM990.285 255.628C990.233 258.272 990.181 260.944 990.129 263.645L994.128 263.721C994.18 261.022 994.232 258.35 994.285 255.707L990.285 255.628ZM989.976 271.832C989.929 274.417 989.882 277.026 989.837 279.662L993.836 279.731C993.882 277.097 993.928 274.488 993.975 271.905L989.976 271.832ZM989.703 287.591C989.659 290.26 989.616 292.953 989.574 295.672L993.574 295.734C993.615 293.016 993.658 290.324 993.702 287.657L989.703 287.591ZM989.453 303.789C989.416 306.374 989.38 308.982 989.345 311.613L993.344 311.666C993.379 309.037 993.416 306.43 993.453 303.846L989.453 303.789ZM989.243 319.573C989.21 322.249 989.178 324.947 989.148 327.669L993.148 327.714C993.178 324.994 993.21 322.296 993.242 319.622L989.243 319.573ZM989.062 335.77C989.037 338.36 989.012 340.969 988.989 343.599L992.988 343.635C993.012 341.006 993.036 338.398 993.062 335.81L989.062 335.77ZM988.923 351.551C988.902 354.222 988.883 356.914 988.865 359.626L992.865 359.652C992.883 356.942 992.902 354.251 992.922 351.582L988.923 351.551ZM988.816 367.818C988.802 370.401 988.79 373.002 988.779 375.621L992.779 375.638C992.79 373.02 992.802 370.421 992.816 367.839L988.816 367.818ZM988.751 383.536C988.743 386.192 988.736 388.868 988.731 391.562L992.731 391.569C992.736 388.877 992.743 386.203 992.751 383.548L988.751 383.536ZM988.721 399.701C988.72 401.067 988.72 402.437 988.72 403.812L992.72 403.812C992.72 402.438 992.72 401.068 992.721 399.703L988.721 399.701ZM989.306 405.227C990.087 406.008 991.353 406.008 992.134 405.227L1004.86 392.499C1005.64 391.718 1005.64 390.451 1004.86 389.67C1004.08 388.889 1002.81 388.889 1002.03 389.67L990.72 400.984L979.406 389.67C978.625 388.889 977.359 388.889 976.578 389.67C975.797 390.451 975.797 391.718 976.578 392.499L989.306 405.227ZM0.585938 2C0.57067 3.99994 0.570675 3.99994 0.570684 3.99994C0.570694 3.99994 0.570708 3.99994 0.570727 3.99994C0.570764 3.99994 0.570821 3.99994 0.570896 3.99994C0.571047 3.99994 0.571273 3.99995 0.571573 3.99995C0.572175 3.99995 0.573076 3.99996 0.574278 3.99997C0.576681 3.99999 0.580284 4.00002 0.585083 4.00005C0.594682 4.00012 0.609068 4.00023 0.628219 4.00038C0.666521 4.00067 0.723882 4.00111 0.800126 4.00169C0.952614 4.00285 1.18063 4.00459 1.48277 4.00689C2.08703 4.01148 2.98775 4.01832 4.17359 4.02729L4.20386 0.0274059C3.01807 0.0184311 2.11739 0.0115941 1.51317 0.00700082C1.21106 0.00470415 0.983065 0.00296852 0.830598 0.00180699C0.754364 0.00122628 0.697014 0.000789063 0.658723 0.000497C0.639577 0.000351028 0.625196 0.000241344 0.615603 0.000168156C0.610806 0.000131502 0.607206 0.000104032 0.604805 8.57564e-05C0.603605 7.65589e-05 0.602705 6.96303e-05 0.602105 6.50911e-05C0.601804 6.28215e-05 0.601579 6.10897e-05 0.60143 5.98957e-05C0.601355 5.93584e-05 0.601298 5.88959e-05 0.601261 5.86275e-05C0.601242 5.8553e-05 0.601228 5.83781e-05 0.601219 5.83408e-05C0.60121 5.83038e-05 0.601205 5.82856e-05 0.585938 2ZM12.2104 4.08787C14.6266 4.10602 17.4004 4.1268 20.5141 4.15006L20.544 0.150171C17.4303 0.126916 14.6566 0.106132 12.2404 0.0879832L12.2104 4.08787ZM28.3769 4.20864C30.9268 4.2276 33.6376 4.24771 36.5032 4.26892L36.5328 0.26903C33.6673 0.24782 30.9565 0.22771 28.4066 0.208754L28.3769 4.20864ZM44.5002 4.32799C47.1314 4.34738 49.8677 4.36752 52.7056 4.38836L52.735 0.388463C49.8971 0.367626 47.1608 0.347492 44.5297 0.328097L44.5002 4.32799ZM60.5665 4.44597C63.2664 4.46572 66.0451 4.48601 68.9 4.50682L68.9292 0.506926C66.0743 0.486119 63.2956 0.465827 60.5958 0.446075L60.5665 4.44597ZM76.7512 4.56394C79.3682 4.58295 82.0419 4.60234 84.7704 4.62209L84.7993 0.622193C82.0708 0.602444 79.3972 0.583057 76.7803 0.56405L76.7512 4.56394ZM93.1189 4.68241C95.6765 4.70085 98.2772 4.71958 100.92 4.73858L100.949 0.738679C98.306 0.719682 95.7053 0.700956 93.1478 0.68251L93.1189 4.68241ZM108.938 4.79611C111.651 4.81555 114.405 4.83525 117.198 4.85518L117.226 0.855286C114.433 0.835348 111.68 0.815654 108.966 0.796215L108.938 4.79611ZM125.139 4.91178C127.761 4.93044 130.415 4.94929 133.099 4.96833L133.128 0.968431C130.443 0.949393 127.789 0.930542 125.168 0.911886L125.139 4.91178ZM141.244 5.02599C143.94 5.04504 146.664 5.06426 149.415 5.08364L149.444 1.08374C146.692 1.06436 143.968 1.04514 141.273 1.02609L141.244 5.02599ZM157.304 5.13911C159.958 5.15774 162.636 5.17651 165.338 5.19541L165.366 1.19551C162.664 1.17661 159.986 1.15784 157.332 1.13921L157.304 5.13911ZM173.512 5.25249C176.181 5.27109 178.87 5.28981 181.581 5.30864L181.609 1.30874C178.898 1.28991 176.208 1.27119 173.54 1.25259L173.512 5.25249ZM189.519 5.36369C192.184 5.38214 194.867 5.40068 197.569 5.41932L197.597 1.41942C194.895 1.40078 192.211 1.38223 189.546 1.36378L189.519 5.36369ZM205.728 5.4755C208.401 5.49387 211.09 5.51232 213.795 5.53084L213.822 1.53094C211.117 1.51241 208.428 1.49396 205.756 1.4756L205.728 5.4755ZM221.748 5.58521C224.414 5.60341 227.095 5.62167 229.79 5.63999L229.817 1.64008C227.122 1.62176 224.441 1.6035 221.775 1.58531L221.748 5.58521ZM237.916 5.69513C240.608 5.71336 243.314 5.73165 246.032 5.74999L246.059 1.75008C243.341 1.73174 240.635 1.71345 237.943 1.69522L237.916 5.69513ZM253.987 5.80355C256.65 5.82145 259.325 5.83939 262.011 5.85737L262.037 1.85746C259.352 1.83948 256.677 1.82154 254.014 1.80364L253.987 5.80355ZM270.101 5.91143C272.808 5.92948 275.526 5.94756 278.254 5.96568L278.281 1.96577C275.553 1.94765 272.835 1.92957 270.128 1.91151L270.101 5.91143ZM286.233 6.01856C288.894 6.03615 291.563 6.05376 294.241 6.0714L294.267 2.07148C291.589 2.05385 288.92 2.03623 286.26 2.01864L286.233 6.01856ZM302.299 6.12435C304.993 6.14202 307.696 6.15971 310.406 6.1774L310.432 2.17748C307.722 2.15979 305.019 2.14211 302.325 2.12444L302.299 6.12435ZM318.484 6.23002C321.143 6.2473 323.808 6.26459 326.48 6.28188L326.506 2.28197C323.834 2.26468 321.169 2.24739 318.51 2.23011L318.484 6.23002ZM334.515 6.33375C337.2 6.35104 339.89 6.36833 342.587 6.38562L342.612 2.3857C339.916 2.36842 337.226 2.35113 334.541 2.33384L334.515 6.33375ZM350.692 6.43745C353.364 6.4545 356.041 6.47153 358.723 6.48856L358.749 2.48864C356.067 2.47161 353.389 2.45458 350.717 2.43753L350.692 6.43745ZM366.746 6.53936C369.425 6.55628 372.108 6.57318 374.795 6.59007L374.82 2.59015C372.133 2.57326 369.45 2.55636 366.772 2.53944L366.746 6.53936ZM382.866 6.64065C385.56 6.65749 388.257 6.6743 390.957 6.69108L390.982 2.69116C388.282 2.67438 385.585 2.65757 382.891 2.64073L382.866 6.64065ZM398.981 6.74083C401.658 6.75738 404.338 6.7739 407.02 6.79039L407.045 2.79046C404.363 2.77398 401.683 2.75745 399.005 2.7409L398.981 6.74083ZM415.073 6.83975C417.76 6.85616 420.448 6.87254 423.137 6.88888L423.162 2.88895C420.472 2.87262 417.784 2.85624 415.098 2.83982L415.073 6.83975ZM431.202 6.93772C433.883 6.9539 436.565 6.97004 439.247 6.98613L439.271 2.9862C436.589 2.97011 433.907 2.95397 431.226 2.93779L431.202 6.93772ZM447.297 7.03426C449.981 7.05026 452.665 7.0662 455.349 7.08209L455.373 3.08216C452.689 3.06627 450.005 3.05033 447.321 3.03433L447.297 7.03426ZM463.401 7.12958C466.087 7.14538 468.773 7.16111 471.458 7.17678L471.481 3.17685C468.796 3.16118 466.11 3.14544 463.424 3.12965L463.401 7.12958ZM479.52 7.22366C482.206 7.23922 484.891 7.25472 487.575 7.27015L487.598 3.27021C484.914 3.25479 482.229 3.23929 479.543 3.22373L479.52 7.22366ZM495.621 7.31622C498.301 7.33151 500.979 7.34672 503.655 7.36186L503.678 3.36192C501.002 3.34678 498.324 3.33157 495.644 3.31628L495.621 7.31622ZM511.723 7.40731C514.417 7.42242 517.109 7.43745 519.797 7.4524L519.819 3.45246C517.131 3.43751 514.44 3.42248 511.746 3.40737L511.723 7.40731ZM527.852 7.49698C530.534 7.51175 533.212 7.52643 535.886 7.54103L535.908 3.54109C533.234 3.52649 530.556 3.51181 527.874 3.49704L527.852 7.49698ZM543.897 7.58453C546.602 7.59914 549.302 7.61366 551.998 7.62808L552.02 3.62813C549.324 3.61372 546.623 3.5992 543.918 3.58458L543.897 7.58453ZM560.077 7.67105C562.765 7.68527 565.448 7.69938 568.125 7.71338L568.146 3.71344C565.469 3.69944 562.786 3.68532 560.098 3.6711L560.077 7.67105ZM576.139 7.75506C578.821 7.76893 581.497 7.78268 584.167 7.79631L584.187 3.79636C581.518 3.78273 578.842 3.76898 576.159 3.75511L576.139 7.75506ZM592.284 7.8375C594.983 7.8511 597.674 7.86457 600.358 7.87792L600.378 3.87797C597.694 3.86462 595.003 3.85115 592.304 3.83755L592.284 7.8375ZM608.386 7.91756C611.055 7.93064 613.715 7.94358 616.366 7.95639L616.386 3.95643C613.734 3.94363 611.074 3.93068 608.406 3.91761L608.386 7.91756ZM624.467 7.99519C627.18 8.00809 629.884 8.02083 632.578 8.03341L632.597 4.03346C629.903 4.02087 627.199 4.00813 624.486 3.99524L624.467 7.99519ZM640.629 8.0707C643.303 8.08297 645.966 8.09507 648.618 8.10702L648.636 4.10706C645.984 4.09511 643.321 4.08301 640.648 4.07074L640.629 8.0707ZM656.63 8.14273C659.361 8.15478 662.079 8.16665 664.785 8.17833L664.802 4.17837C662.097 4.16669 659.378 4.15482 656.647 4.14277L656.63 8.14273ZM672.864 8.2128C675.544 8.2241 678.21 8.2352 680.863 8.24611L680.879 4.24614C678.227 4.23524 675.56 4.22413 672.881 4.21283L672.864 8.2128ZM688.788 8.27827C691.538 8.28928 694.272 8.30007 696.99 8.31063L697.005 4.31066C694.288 4.3001 691.554 4.28931 688.804 4.27831L688.788 8.27827ZM705.093 8.34161C707.778 8.35171 710.445 8.36157 713.095 8.37119L713.109 4.37122C710.46 4.3616 707.792 4.35174 705.108 4.34164L705.093 8.34161ZM720.99 8.39933C723.751 8.40898 726.491 8.41835 729.209 8.42745L729.223 4.42747C726.504 4.41838 723.764 4.409 721.004 4.39936L720.99 8.39933ZM737.322 8.45394C740.005 8.46249 742.666 8.47075 745.304 8.47871L745.316 4.47873C742.678 4.47076 740.018 4.46251 737.335 4.45396L737.322 8.45394ZM753.211 8.50187C755.988 8.50975 758.738 8.51729 761.461 8.52447L761.471 4.52449C758.749 4.51731 755.999 4.50977 753.222 4.50189L753.211 8.50187ZM769.544 8.54494C772.211 8.5514 774.848 8.5575 777.457 8.56323L777.465 4.56324C774.857 4.55751 772.22 4.55142 769.554 4.54495L769.544 8.54494ZM785.538 8.57996C788.305 8.58533 791.036 8.59024 793.73 8.5947L793.737 4.59471C791.043 4.59025 788.313 4.58533 785.546 4.57996L785.538 8.57996ZM801.7 8.60668C804.38 8.61029 807.02 8.6134 809.618 8.61601L809.622 4.61601C807.024 4.61341 804.384 4.61029 801.705 4.60668L801.7 8.60668ZM817.901 8.62269C820.613 8.62431 823.275 8.62533 825.885 8.62573L825.886 4.62573C823.276 4.62533 820.615 4.62431 817.904 4.62269L817.901 8.62269ZM833.797 8.62498C836.631 8.62397 839.397 8.62214 842.094 8.61948L842.09 4.61948C839.394 4.62214 836.629 4.62397 833.795 4.62498L833.797 8.62498ZM849.97 8.60897C852.782 8.60418 855.506 8.59835 858.14 8.59146L858.129 4.59147C855.497 4.59836 852.774 4.60419 849.963 4.60898L849.97 8.60897ZM866.211 8.56588C868.996 8.55539 871.658 8.54346 874.194 8.53006L874.172 4.53012C871.639 4.54351 868.979 4.55542 866.196 4.56591L866.211 8.56588ZM882.328 8.47869C883.601 8.46915 884.83 8.45913 886.017 8.4486L885.981 4.44876C884.797 4.45927 883.569 4.46928 882.299 4.4788L882.328 8.47869ZM886.017 8.4486C887.403 8.43631 888.771 8.42426 890.123 8.41284L890.089 4.41298C888.737 4.42441 887.368 4.43647 885.981 4.44876L886.017 8.4486ZM898.027 8.35489C900.795 8.33895 903.485 8.32948 906.099 8.33029L906.101 4.33029C903.476 4.32948 900.778 4.33898 898.004 4.35495L898.027 8.35489ZM914.067 8.37105C916.791 8.40045 919.422 8.44736 921.965 8.51693L922.075 4.51842C919.506 4.44815 916.852 4.40087 914.11 4.37128L914.067 8.37105ZM929.892 8.82768C932.653 8.97356 935.295 9.15805 937.822 9.38919L938.187 5.40582C935.6 5.16929 932.907 4.98138 930.103 4.83325L929.892 8.82768ZM945.651 10.3165C948.362 10.7221 950.915 11.2048 953.318 11.777L954.245 7.88569C951.714 7.28336 949.049 6.78028 946.243 6.36054L945.651 10.3165ZM960.693 13.9954C963.198 14.9341 965.499 16.0193 967.617 17.2712L969.652 13.8279C967.313 12.4447 964.797 11.2616 962.097 10.2498L960.693 13.9954ZM973.672 21.7624C975.485 23.4386 977.137 25.3278 978.642 27.4611L981.911 25.1554C980.25 22.8015 978.414 20.6989 976.387 18.8252L973.672 21.7624ZM982.467 34.0679C983.507 36.2563 984.454 38.6392 985.313 41.2355L989.11 39.9791C988.205 37.2445 987.199 34.7058 986.08 32.3511L982.467 34.0679ZM987.419 48.7623C987.993 51.196 988.512 53.7784 988.98 56.519L992.923 55.8466C992.443 53.0335 991.908 50.3684 991.313 47.8442L987.419 48.7623ZM990.118 64.3C990.428 66.7899 990.706 69.3902 990.953 72.1062L994.937 71.7433C994.686 68.988 994.404 66.3434 994.087 63.8053L990.118 64.3ZM991.571 80.0504C991.74 82.6285 991.888 85.2984 992.015 88.0633L996.011 87.8795C995.882 85.0911 995.734 82.3951 995.563 79.7886L991.571 80.0504ZM992.315 95.9068C992.397 98.5302 992.464 101.231 992.517 104.012L996.516 103.936C996.463 101.14 996.395 98.4231 996.313 95.7822L992.315 95.9068ZM992.629 111.847C992.656 114.479 992.672 117.178 992.678 119.944L996.678 119.935C996.671 117.159 996.655 114.451 996.629 111.807L992.629 111.847ZM992.673 127.8C992.664 130.458 992.648 133.174 992.625 135.95L996.625 135.983C996.648 133.202 996.664 130.479 996.673 127.814L992.673 127.8ZM992.546 143.763C992.514 146.418 992.477 149.124 992.436 151.883L996.436 151.943C996.477 149.18 996.514 146.47 996.545 143.81L992.546 143.763ZM992.309 159.764C992.264 162.383 992.216 165.048 992.165 167.758L996.164 167.834C996.215 165.122 996.264 162.455 996.309 159.832L992.309 159.764ZM992.005 175.852C991.953 178.428 991.899 181.043 991.842 183.698L995.841 183.783C995.898 181.127 995.952 178.511 996.005 175.933L992.005 175.852ZM991.668 191.783C991.611 194.408 991.552 197.071 991.492 199.771L995.491 199.86C995.551 197.159 995.61 194.496 995.667 191.87L991.668 191.783ZM991.316 207.667C991.256 210.334 991.196 213.036 991.135 215.773L995.134 215.863C995.195 213.125 995.255 210.423 995.315 207.756L991.316 207.667ZM990.958 223.748C990.901 226.348 990.843 228.978 990.785 231.64L994.785 231.727C994.842 229.065 994.9 226.435 994.957 223.836L990.958 223.748ZM990.612 239.72C990.556 242.376 990.5 245.062 990.444 247.778L994.443 247.86C994.499 245.145 994.555 242.46 994.611 239.805L990.612 239.72ZM990.285 255.628C990.233 258.272 990.181 260.944 990.129 263.645L994.128 263.721C994.18 261.022 994.232 258.35 994.285 255.707L990.285 255.628ZM989.976 271.832C989.929 274.417 989.882 277.026 989.837 279.662L993.836 279.731C993.882 277.097 993.928 274.488 993.975 271.905L989.976 271.832ZM989.703 287.591C989.659 290.26 989.616 292.953 989.574 295.672L993.574 295.734C993.615 293.016 993.658 290.324 993.702 287.657L989.703 287.591ZM989.453 303.789C989.416 306.374 989.38 308.982 989.345 311.613L993.344 311.666C993.379 309.037 993.416 306.43 993.453 303.846L989.453 303.789ZM989.243 319.573C989.21 322.249 989.178 324.947 989.148 327.669L993.148 327.714C993.178 324.994 993.21 322.296 993.242 319.622L989.243 319.573ZM989.062 335.77C989.037 338.36 989.012 340.969 988.989 343.599L992.988 343.635C993.012 341.006 993.036 338.398 993.062 335.81L989.062 335.77ZM988.923 351.551C988.902 354.222 988.883 356.914 988.865 359.626L992.865 359.652C992.883 356.942 992.902 354.251 992.922 351.582L988.923 351.551ZM988.816 367.818C988.802 370.401 988.79 373.002 988.779 375.621L992.779 375.638C992.79 373.02 992.802 370.421 992.816 367.839L988.816 367.818ZM988.751 383.536C988.743 386.192 988.736 388.868 988.731 391.562L992.731 391.569C992.736 388.877 992.743 386.203 992.751 383.548L988.751 383.536ZM988.721 399.701C988.72 401.067 988.72 402.437 988.72 403.812L992.72 403.812C992.72 402.438 992.72 401.068 992.721 399.703L988.721 399.701Z" fill="white" fill-opacity="0.3"/>
</svg>
