<svg width="26" height="20" viewBox="0 0 26 20" fill="none" xmlns="http://www.w3.org/2000/svg">
<path d="M21.9993 1.66207C20.3526 0.88727 18.5697 0.324916 16.7125 0C16.6798 0.000469509 16.6487 0.0139449 16.6258 0.0374906C16.4029 0.449884 16.1429 0.987244 15.9696 1.39964C13.9997 1.0999 11.9965 1.0999 10.0266 1.39964C9.85324 0.974747 9.59323 0.449884 9.35798 0.0374906C9.3456 0.012497 9.30846 0 9.27131 0C7.41412 0.324916 5.6436 0.88727 3.9845 1.66207C3.97212 1.66207 3.95974 1.67457 3.94736 1.68706C0.579648 6.77325 -0.348949 11.722 0.109159 16.6207C0.109159 16.6457 0.12154 16.6707 0.146302 16.6832C2.37493 18.3328 4.5169 19.3325 6.6341 19.9948C6.67124 20.0073 6.70839 19.9948 6.72077 19.9698C7.21602 19.2825 7.66175 18.5577 8.04557 17.7954C8.07033 17.7454 8.04557 17.6954 7.99604 17.6829C7.29031 17.408 6.62172 17.0831 5.96551 16.7082C5.91599 16.6832 5.91598 16.6082 5.95313 16.5707C6.08932 16.4707 6.22552 16.3583 6.36171 16.2583C6.38647 16.2333 6.42362 16.2333 6.44838 16.2458C10.7075 18.2078 15.301 18.2078 19.5106 16.2458C19.5354 16.2333 19.5725 16.2333 19.5973 16.2583C19.7335 16.3708 19.8697 16.4707 20.0059 16.5832C20.0554 16.6207 20.0554 16.6957 19.9935 16.7207C19.3497 17.1081 18.6687 17.4205 17.963 17.6954C17.9135 17.7079 17.9011 17.7704 17.9135 17.8079C18.3097 18.5702 18.7554 19.295 19.2383 19.9823C19.2754 19.9948 19.3125 20.0073 19.3497 19.9948C21.4793 19.3325 23.6212 18.3328 25.8499 16.6832C25.8746 16.6707 25.887 16.6457 25.887 16.6207C26.4318 10.9597 24.9832 6.04843 22.0488 1.68706C22.0364 1.67457 22.024 1.66207 21.9993 1.66207ZM8.68939 13.634C7.41412 13.634 6.34933 12.4468 6.34933 10.9847C6.34933 9.52253 7.38936 8.33534 8.68939 8.33534C10.0018 8.33534 11.0418 9.53503 11.0295 10.9847C11.0295 12.4468 9.98943 13.634 8.68939 13.634ZM17.3192 13.634C16.0439 13.634 14.9791 12.4468 14.9791 10.9847C14.9791 9.52253 16.0191 8.33534 17.3192 8.33534C18.6316 8.33534 19.6716 9.53503 19.6592 10.9847C19.6592 12.4468 18.6316 13.634 17.3192 13.634Z" fill="white"/>
</svg>
